<mxfile host="app.diagrams.net" modified="2023-03-28T01:33:05.084Z" agent="Mozilla/5.0 (Macintosh; Intel Mac OS X 10_15_7) AppleWebKit/537.36 (KHTML, like Gecko) Chrome/111.0.0.0 Safari/537.36 Edg/111.0.1661.54" version="21.1.1" etag="MnJpjgZdv0MKMoPIh0TX" type="github">
  <diagram name="Page-1" id="k4ngPFfawwM0zEs7p4h2">
    <mxGraphModel>
      <root>
        <mxCell id="0" />
        <mxCell id="1" parent="0" />
      </root>
    </mxGraphModel>
  </diagram>
</mxfile>
